<svg width="86" height="25" viewBox="0 0 86 25" fill="none" xmlns="http://www.w3.org/2000/svg"><mask id="mask0_2320_349" maskUnits="userSpaceOnUse" x="7" y="2" width="21" height="21" style="mask-type: alpha;"><rect x="7" y="2.09302" width="20.093" height="20.093" fill="#D9D9D9"></rect></mask><g mask="url(#mask0_2320_349)"><path d="M9.51172 9.62799V8.79078H20.3954C20.8655 8.79078 21.2622 8.62927 21.5853 8.30625C21.9083 7.98309 22.0699 7.58646 22.0699 7.11636C22.0699 6.64627 21.9083 6.24964 21.5853 5.92648C21.2622 5.60346 20.8655 5.44195 20.3954 5.44195C19.9897 5.44195 19.6414 5.56055 19.3506 5.79776C19.0597 6.03497 18.8713 6.33497 18.7855 6.69776H17.916C18.0126 6.08925 18.2924 5.58825 18.7556 5.19476C19.2188 4.80141 19.7654 4.60474 20.3954 4.60474C21.1006 4.60474 21.6956 4.84704 22.1802 5.33164C22.6648 5.81625 22.9071 6.41115 22.9071 7.11636C22.9071 7.82157 22.6648 8.41648 22.1802 8.90109C21.6956 9.38569 21.1006 9.62799 20.3954 9.62799H9.51172ZM23.3257 18.6119V17.7424C23.6885 17.6566 23.9885 17.4682 24.2257 17.1773C24.4629 16.8865 24.5815 16.5382 24.5815 16.1325C24.5815 15.6624 24.42 15.2658 24.097 14.9426C23.7738 14.6196 23.3772 14.4581 22.9071 14.4581H9.51172V13.6209H22.9071C23.6123 13.6209 24.2072 13.8632 24.6918 14.3478C25.1764 14.8324 25.4187 15.4273 25.4187 16.1325C25.4187 16.7625 25.222 17.3091 24.8287 17.7724C24.4353 18.2355 23.9343 18.5153 23.3257 18.6119Z" fill="#896B3B"></path></g><rect x="10" y="11.093" width="69" height="1" fill="#896B3B"></rect></svg>