<svg width="182" height="25" viewBox="0 0 182 25" fill="none" xmlns="http://www.w3.org/2000/svg">
<mask id="mask0_2325_807" style="mask-type:alpha;" maskUnits="userSpaceOnUse" x="58" y="2" width="21" height="21">
<rect width="20.093" height="20.093" transform="matrix(-1 0 0 1 79 2)" fill="#D9D9D9"></rect>
</mask>
<g mask="url(#mask0_2325_807)">
<path d="M76.4883 9.53488V8.69767H65.6046C65.1345 8.69767 64.7378 8.53616 64.4147 8.21314C64.0917 7.88998 63.9301 7.49335 63.9301 7.02326C63.9301 6.55316 64.0917 6.15653 64.4147 5.83337C64.7378 5.51035 65.1345 5.34884 65.6046 5.34884C66.0103 5.34884 66.3586 5.46744 66.6494 5.70465C66.9403 5.94186 67.1287 6.24186 67.2145 6.60465H68.084C67.9874 5.99614 67.7076 5.49514 67.2444 5.10165C66.7812 4.7083 66.2346 4.51163 65.6046 4.51163C64.8994 4.51163 64.3044 4.75393 63.8198 5.23854C63.3352 5.72314 63.0929 6.31805 63.0929 7.02326C63.0929 7.72846 63.3352 8.32337 63.8198 8.80798C64.3044 9.29258 64.8994 9.53488 65.6046 9.53488H76.4883ZM62.6743 18.5188V17.6493C62.3115 17.5635 62.0115 17.3751 61.7743 17.0842C61.5371 16.7934 61.4185 16.4451 61.4185 16.0394C61.4185 15.5693 61.58 15.1727 61.903 14.8495C62.2262 14.5265 62.6228 14.365 63.0929 14.365H76.4883V13.5277H63.0929C62.3877 13.5277 61.7928 13.77 61.3082 14.2547C60.8236 14.7393 60.5813 15.3342 60.5813 16.0394C60.5813 16.6694 60.778 17.216 61.1713 17.6793C61.5647 18.1424 62.0657 18.4222 62.6743 18.5188Z" fill="#B29763"></path>
</g>
<rect width="69" height="1" transform="matrix(-1 0 0 1 76 11)" fill="#B29763"></rect>
<mask id="mask1_2325_807" style="mask-type:alpha;" maskUnits="userSpaceOnUse" x="103" y="2" width="21" height="21">
<rect x="103" y="2" width="20.093" height="20.093" fill="#D9D9D9"></rect>
</mask>
<g mask="url(#mask1_2325_807)">
<path d="M105.512 9.53488V8.69767H116.395C116.866 8.69767 117.262 8.53616 117.585 8.21314C117.908 7.88998 118.07 7.49335 118.07 7.02326C118.07 6.55316 117.908 6.15653 117.585 5.83337C117.262 5.51035 116.866 5.34884 116.395 5.34884C115.99 5.34884 115.641 5.46744 115.351 5.70465C115.06 5.94186 114.871 6.24186 114.785 6.60465H113.916C114.013 5.99614 114.292 5.49514 114.756 5.10165C115.219 4.7083 115.765 4.51163 116.395 4.51163C117.101 4.51163 117.696 4.75393 118.18 5.23854C118.665 5.72314 118.907 6.31805 118.907 7.02326C118.907 7.72846 118.665 8.32337 118.18 8.80798C117.696 9.29258 117.101 9.53488 116.395 9.53488H105.512ZM119.326 18.5188V17.6493C119.688 17.5635 119.988 17.3751 120.226 17.0842C120.463 16.7934 120.581 16.4451 120.581 16.0394C120.581 15.5693 120.42 15.1727 120.097 14.8495C119.774 14.5265 119.377 14.365 118.907 14.365H105.512V13.5277H118.907C119.612 13.5277 120.207 13.77 120.692 14.2547C121.176 14.7393 121.419 15.3342 121.419 16.0394C121.419 16.6694 121.222 17.216 120.829 17.6793C120.435 18.1424 119.934 18.4222 119.326 18.5188Z" fill="#B29763"></path>
</g>
<rect x="106" y="11" width="69" height="1" fill="#B29763"></rect>
</svg>